# xmcd CD database file
#
# Track frame offsets:
#	150
#	18527
#	35225
#	52860
#	75877
#	93937
#	106682
#	121930
#	139725
#	161767
#	190242
#
# Disc length: 2542 seconds
#
# Revision: 0
# Processed by: cddbd v1.5.1PL0 Copyright (c) Steve Scherf et al.
# Submitted via: CDex 1.50beta9
#
DISCID=8109ec0b
DTITLE=risette - your own sweet way
DYEAR=2001
DGENRE=Pop
TTITLE0=ナ・ギ・サ
TTITLE1=Smoke
TTITLE2=Call
TTITLE3=Venus
TTITLE4=01apple
TTITLE5=Sugar
TTITLE6=Faces
TTITLE7=People
TTITLE8=White house
TTITLE9=Rain
TTITLE10=DataTrack
EXTD=YEAR: 2001
EXTT0=
EXTT1=
EXTT2=
EXTT3=
EXTT4=
EXTT5=
EXTT6=
EXTT7=
EXTT8=
EXTT9=
EXTT10=
PLAYORDER=
